<svg width="254" height="197" viewBox="0 0 254 197" xmlns="http://www.w3.org/2000/svg" xmlns:xlink="http://www.w3.org/1999/xlink"><title>Beanie</title><defs><path d="M3.314 9.552s99-22.857 240 2.143c0 0 11.313 23.124 0 39.286-11.314 16.162-145-25-239 0 0 0-9-18.571-1-41.429z" id="a"/></defs><g transform="translate(3 2)" fill="none" fill-rule="evenodd"><path d="M12.252 159.245S-8.748 25 121.252 25s117 136 117 136l-226-1.755z" stroke="#0099FA" stroke-width="4" fill="#68BBF0"/><circle stroke="#0099FA" stroke-width="4" fill="#E6E6E6" cx="125" cy="25" r="25"/><g transform="translate(0 137)"><mask id="b" fill="#fff"><use xlink:href="#a"/></mask><use stroke="#0099FA" stroke-width="5" fill="#FFF" xlink:href="#a"/><g mask="url(#b)"><path fill="#29A2EF" d="M0 0h10v60.714H0zm80 0h10v60.714H80zm80 0h10v60.714h-10zM40 0h10v60.714H40zm80 0h10v60.714h-10zm80 0h10v60.714h-10zM20 0h10v60.714H20zm80 0h10v60.714h-10zm80 0h10v60.714h-10zM60 0h10v60.714H60zm80 0h10v60.714h-10zm80 0h10v60.714h-10zm20 0h10v60.714h-10z"/><path fill="#E6E6E6" d="M10 0h10v60.714H10zm80 0h10v60.714H90zm80 0h10v60.714h-10zM50 0h10v60.714H50zm80 0h10v60.714h-10zm80 0h10v60.714h-10zM30 0h10v60.714H30zm80 0h10v60.714h-10zm80 0h10v60.714h-10zM70 0h10v60.714H70zm80 0h10v60.714h-10zm80 0h10v60.714h-10zm20 0h10v60.714h-10z"/></g></g></g></svg>